# xmcd
#
# Track frame offsets:
#	150
#	17705
#	29500
#	41020
#	50465
#	62077
#	75227
#	85347
#	99215
#	108992
#	122582
#	136577
#
# Disc length: 2105
#
# Revision: 1
# Processed by: cddbd v1.5.1PL0 Copyright (c) Steve Scherf et al.
# Submitted via: VisiTrax 2.9.5.180 - For more info visit www.synapsa.com
# Normalized: r0:DSETVAR1
#
DISCID=8a08370c
DTITLE=Various Artist - Classic Country Christmas
DYEAR=1900
DGENRE=Christmas
TTITLE0=Clinton Gregory - Christmas in Virginia
TTITLE1=Clinton Gregory - Christmas in Texas
TTITLE2=Ray Price - For christmas
TTITLE3=Jack Robertson - My favorite time of year
TTITLE4=Geezinslaws - Lighten up it's christmas
TTITLE5=Clinton Gregory - Home pulls the heartstrings
TTITLE6=Ray Price - With christmas near
TTITLE7=Clinton Gregory - Thank God for christmas
TTITLE8=Buddy Emmons - Sleigh ride
TTITLE9=Buddy Emmons - White christmas
TTITLE10=Faron Young - Silver bells
TTITLE11=Floyd Cramer - Medley
EXTD=
EXTT0=
EXTT1=
EXTT2=
EXTT3=
EXTT4=
EXTT5=
EXTT6=
EXTT7=
EXTT8=
EXTT9=
EXTT10=
EXTT11=
PLAYORDER=
